<svg width="185" height="43" viewBox="0 0 185 43" fill="none" xmlns="http://www.w3.org/2000/svg">
<path d="M19.5369 13.08C19.0835 12.3333 18.4569 11.76 17.6569 11.36C16.8835 10.96 15.9635 10.76 14.8969 10.76C12.9235 10.76 11.3635 11.4 10.2169 12.68C9.09688 13.96 8.53688 15.68 8.53688 17.84C8.53688 20.2667 9.13688 22.12 10.3369 23.4C11.5635 24.6533 13.3369 25.28 15.6569 25.28C18.4035 25.28 20.3635 24.04 21.5369 21.56H13.6569V15.92H28.2969V23.52C27.6835 25.0133 26.7769 26.4133 25.5769 27.72C24.4035 29.0267 22.9102 30.1067 21.0969 30.96C19.2835 31.7867 17.2169 32.2 14.8969 32.2C12.0702 32.2 9.56354 31.6 7.37688 30.4C5.21688 29.1733 3.53688 27.48 2.33688 25.32C1.16354 23.1333 0.576875 20.64 0.576875 17.84C0.576875 15.0667 1.16354 12.6 2.33688 10.44C3.53688 8.25333 5.21688 6.56 7.37688 5.36C9.53688 4.13333 12.0302 3.52 14.8569 3.52C18.4035 3.52 21.3369 4.37333 23.6569 6.08C25.9769 7.78667 27.4169 10.12 27.9769 13.08H19.5369ZM42.2503 32.28C40.0103 32.28 37.997 31.8133 36.2103 30.88C34.4503 29.9467 33.0636 28.6133 32.0503 26.88C31.037 25.1467 30.5303 23.1067 30.5303 20.76C30.5303 18.44 31.037 16.4133 32.0503 14.68C33.0903 12.9467 34.4903 11.6133 36.2503 10.68C38.037 9.74667 40.0503 9.28 42.2903 9.28C44.5303 9.28 46.5303 9.74667 48.2903 10.68C50.077 11.6133 51.477 12.9467 52.4903 14.68C53.5303 16.4133 54.0503 18.44 54.0503 20.76C54.0503 23.08 53.5303 25.12 52.4903 26.88C51.477 28.6133 50.077 29.9467 48.2903 30.88C46.5036 31.8133 44.4903 32.28 42.2503 32.28ZM42.2503 25.48C43.3436 25.48 44.2503 25.08 44.9703 24.28C45.717 23.4533 46.0903 22.28 46.0903 20.76C46.0903 19.24 45.717 18.08 44.9703 17.28C44.2503 16.48 43.357 16.08 42.2903 16.08C41.2236 16.08 40.3303 16.48 39.6103 17.28C38.8903 18.08 38.5303 19.24 38.5303 20.76C38.5303 22.3067 38.877 23.48 39.5703 24.28C40.2636 25.08 41.157 25.48 42.2503 25.48ZM67.68 32.28C65.44 32.28 63.4267 31.8133 61.64 30.88C59.88 29.9467 58.4933 28.6133 57.48 26.88C56.4667 25.1467 55.96 23.1067 55.96 20.76C55.96 18.44 56.4667 16.4133 57.48 14.68C58.52 12.9467 59.92 11.6133 61.68 10.68C63.4667 9.74667 65.48 9.28 67.72 9.28C69.96 9.28 71.96 9.74667 73.72 10.68C75.5067 11.6133 76.9067 12.9467 77.92 14.68C78.96 16.4133 79.48 18.44 79.48 20.76C79.48 23.08 78.96 25.12 77.92 26.88C76.9067 28.6133 75.5067 29.9467 73.72 30.88C71.9333 31.8133 69.92 32.28 67.68 32.28ZM67.68 25.48C68.7733 25.48 69.68 25.08 70.4 24.28C71.1467 23.4533 71.52 22.28 71.52 20.76C71.52 19.24 71.1467 18.08 70.4 17.28C69.68 16.48 68.7867 16.08 67.72 16.08C66.6533 16.08 65.76 16.48 65.04 17.28C64.32 18.08 63.96 19.24 63.96 20.76C63.96 22.3067 64.3067 23.48 65 24.28C65.6933 25.08 66.5867 25.48 67.68 25.48ZM81.3897 20.76C81.3897 18.44 81.803 16.4133 82.6297 14.68C83.483 12.9467 84.643 11.6133 86.1097 10.68C87.5764 9.74667 89.203 9.28 90.9897 9.28C92.4297 9.28 93.7097 9.58667 94.8297 10.2C95.9764 10.7867 96.8697 11.6 97.5097 12.64V2.4H105.39V32H97.5097V28.88C96.8964 29.92 96.0297 30.7467 94.9097 31.36C93.7897 31.9733 92.4697 32.28 90.9497 32.28C89.163 32.28 87.5364 31.8133 86.0697 30.88C84.6297 29.9467 83.483 28.6133 82.6297 26.88C81.803 25.12 81.3897 23.08 81.3897 20.76ZM97.5497 20.76C97.5497 19.32 97.1497 18.1867 96.3497 17.36C95.5764 16.5333 94.6164 16.12 93.4697 16.12C92.2964 16.12 91.323 16.5333 90.5497 17.36C89.7764 18.16 89.3897 19.2933 89.3897 20.76C89.3897 22.2 89.7764 23.3467 90.5497 24.2C91.323 25.0267 92.2964 25.44 93.4697 25.44C94.6164 25.44 95.5764 25.0267 96.3497 24.2C97.1497 23.3733 97.5497 22.2267 97.5497 20.76Z" fill="white"/>
<path d="M117.697 2.4V32H109.857V2.4H117.697ZM146.322 9.56L132.082 42.68H123.562L128.922 31.04L119.722 9.56H128.442L133.162 22.28L137.722 9.56H146.322ZM160.493 16.08H156.973V32H149.093V16.08H146.653V9.56H149.093V9.36C149.093 6.48 149.933 4.28 151.613 2.76C153.319 1.21333 155.759 0.439999 158.933 0.439999C159.573 0.439999 160.066 0.453332 160.413 0.479998V7.16C160.199 7.13333 159.906 7.12 159.533 7.12C158.679 7.12 158.053 7.32 157.653 7.72C157.253 8.09333 157.026 8.70666 156.973 9.56H160.493V16.08ZM184.735 20.52C184.735 21.1333 184.695 21.7467 184.615 22.36H169.775C169.855 23.5867 170.188 24.5067 170.775 25.12C171.388 25.7067 172.161 26 173.095 26C174.401 26 175.335 25.4133 175.895 24.24H184.255C183.908 25.7867 183.228 27.1733 182.215 28.4C181.228 29.6 179.975 30.5467 178.455 31.24C176.935 31.9333 175.255 32.28 173.415 32.28C171.201 32.28 169.228 31.8133 167.495 30.88C165.788 29.9467 164.441 28.6133 163.455 26.88C162.495 25.1467 162.015 23.1067 162.015 20.76C162.015 18.4133 162.495 16.3867 163.455 14.68C164.415 12.9467 165.748 11.6133 167.455 10.68C169.188 9.74667 171.175 9.28 173.415 9.28C175.628 9.28 177.588 9.73333 179.295 10.64C181.001 11.5467 182.335 12.8533 183.295 14.56C184.255 16.24 184.735 18.2267 184.735 20.52ZM176.735 18.56C176.735 17.6 176.415 16.8533 175.775 16.32C175.135 15.76 174.335 15.48 173.375 15.48C172.415 15.48 171.628 15.7467 171.015 16.28C170.401 16.7867 170.001 17.5467 169.815 18.56H176.735Z" fill="#FFC1D8"/>
</svg>
