<svg width="24" height="25" viewBox="0 0 24 25" fill="none" xmlns="http://www.w3.org/2000/svg">
<g id="Social Icons / White / Twitter">
<path id="BG" opacity="0.1" fill-rule="evenodd" clip-rule="evenodd" d="M0 12.106C0 5.47854 5.37258 0.105957 12 0.105957C18.6274 0.105957 24 5.47854 24 12.106C24 18.7334 18.6274 24.106 12 24.106C5.37258 24.106 0 18.7334 0 12.106Z" fill="white"/>
<path id="Path" fill-rule="evenodd" clip-rule="evenodd" d="M11.6406 9.85966L11.6658 10.2749L11.2461 10.224C9.71843 10.0291 8.38383 9.36817 7.25067 8.25807L6.69668 7.70726L6.55399 8.11401C6.25181 9.02073 6.44487 9.97829 7.0744 10.6223C7.41015 10.9782 7.33461 11.0291 6.75544 10.8172C6.55399 10.7494 6.37772 10.6986 6.36093 10.724C6.30218 10.7833 6.50363 11.5545 6.66311 11.8595C6.88134 12.2832 7.32621 12.6985 7.81305 12.9442L8.22434 13.1391L7.73751 13.1476C7.26746 13.1476 7.25067 13.1561 7.30103 13.334C7.46891 13.8848 8.13201 14.4695 8.87066 14.7237L9.39108 14.9017L8.93781 15.1729C8.26631 15.5627 7.4773 15.783 6.68829 15.7999C6.31057 15.8084 6 15.8423 6 15.8677C6 15.9525 7.02404 16.427 7.61999 16.6135C9.40786 17.1643 11.5315 16.927 13.1263 15.9864C14.2595 15.3169 15.3926 13.9865 15.9214 12.6985C16.2068 12.0121 16.4922 10.7579 16.4922 10.1562C16.4922 9.76644 16.5174 9.7156 16.9874 9.24953C17.2644 8.97836 17.5246 8.68177 17.575 8.59703C17.6589 8.43602 17.6505 8.43602 17.2224 8.58008C16.509 8.8343 16.4083 8.80041 16.7608 8.41907C17.021 8.14791 17.3316 7.65641 17.3316 7.51235C17.3316 7.48693 17.2057 7.5293 17.063 7.60557C16.9119 7.69031 16.5761 7.81742 16.3243 7.89369L15.8711 8.03774L15.4598 7.7581C15.2331 7.60557 14.9142 7.43609 14.7463 7.38524C14.3182 7.26661 13.6635 7.28356 13.2774 7.41914C12.2282 7.80047 11.5651 8.78346 11.6406 9.85966Z" fill="white"/>
</g>
</svg>
