<svg width="24" height="25" viewBox="0 0 24 25" fill="none" xmlns="http://www.w3.org/2000/svg">
<g id="Social Icons / White / Instagram">
<path id="BG" opacity="0.1" fill-rule="evenodd" clip-rule="evenodd" d="M0 12.106C0 5.47854 5.37258 0.105957 12 0.105957C18.6274 0.105957 24 5.47854 24 12.106C24 18.7334 18.6274 24.106 12 24.106C5.37258 24.106 0 18.7334 0 12.106Z" fill="white"/>
<path id="Path" fill-rule="evenodd" clip-rule="evenodd" d="M12.0006 5.70605C10.2624 5.70605 10.0443 5.71365 9.36161 5.74472C8.68027 5.77592 8.2152 5.88379 7.80827 6.04206C7.38733 6.20553 7.03026 6.4242 6.67452 6.78007C6.31852 7.1358 6.09985 7.49287 5.93585 7.91368C5.77718 8.32075 5.66918 8.78595 5.63851 9.46703C5.60798 10.1497 5.59998 10.368 5.59998 12.1061C5.59998 13.8443 5.60771 14.0617 5.63864 14.7444C5.66998 15.4258 5.77784 15.8908 5.93598 16.2978C6.09958 16.7187 6.31825 17.0758 6.67412 17.4315C7.02972 17.7875 7.38679 18.0067 7.80747 18.1702C8.21467 18.3285 8.67987 18.4363 9.36108 18.4675C10.0438 18.4986 10.2618 18.5062 11.9998 18.5062C13.7381 18.5062 13.9555 18.4986 14.6382 18.4675C15.3195 18.4363 15.7851 18.3285 16.1924 18.1702C16.6132 18.0067 16.9697 17.7875 17.3253 17.4315C17.6813 17.0758 17.9 16.7187 18.064 16.2979C18.2213 15.8908 18.3293 15.4256 18.3613 14.7445C18.392 14.0619 18.4 13.8443 18.4 12.1061C18.4 10.368 18.392 10.1498 18.3613 9.46716C18.3293 8.78582 18.2213 8.32075 18.064 7.91381C17.9 7.49287 17.6813 7.1358 17.3253 6.78007C16.9693 6.42406 16.6133 6.20539 16.192 6.04206C15.7839 5.88379 15.3186 5.77592 14.6373 5.74472C13.9546 5.71365 13.7373 5.70605 11.9986 5.70605H12.0006ZM11.4264 6.85938C11.5968 6.85912 11.7869 6.85938 12.0005 6.85938C13.7094 6.85938 13.9119 6.86552 14.5867 6.89618C15.2107 6.92472 15.5494 7.02898 15.775 7.11658C16.0737 7.23259 16.2866 7.37125 16.5105 7.59526C16.7345 7.81926 16.8731 8.03259 16.9894 8.33126C17.077 8.5566 17.1814 8.89527 17.2098 9.51928C17.2405 10.194 17.2471 10.3966 17.2471 12.1046C17.2471 13.8127 17.2405 14.0153 17.2098 14.69C17.1813 15.314 17.077 15.6527 16.9894 15.878C16.8734 16.1767 16.7345 16.3893 16.5105 16.6132C16.2865 16.8372 16.0738 16.9759 15.775 17.0919C15.5497 17.1799 15.2107 17.2839 14.5867 17.3124C13.912 17.3431 13.7094 17.3498 12.0005 17.3498C10.2916 17.3498 10.0891 17.3431 9.41439 17.3124C8.79038 17.2836 8.45171 17.1794 8.22598 17.0918C7.92731 16.9758 7.71397 16.8371 7.48997 16.6131C7.26597 16.3891 7.1273 16.1763 7.01103 15.8775C6.92343 15.6521 6.81903 15.3135 6.79063 14.6895C6.75996 14.0148 6.75383 13.8121 6.75383 12.103C6.75383 10.394 6.75996 10.1924 6.79063 9.51768C6.81916 8.89367 6.92343 8.555 7.01103 8.3294C7.12703 8.03073 7.26597 7.81739 7.48997 7.59339C7.71397 7.36939 7.92731 7.23072 8.22598 7.11445C8.45158 7.02645 8.79038 6.92245 9.41439 6.89378C10.0048 6.86712 10.2336 6.85912 11.4264 6.85778V6.85938ZM15.4169 7.92206C14.9928 7.92206 14.6488 8.26567 14.6488 8.6898C14.6488 9.11381 14.9928 9.45781 15.4169 9.45781C15.8409 9.45781 16.1849 9.11381 16.1849 8.6898C16.1849 8.2658 15.8409 7.92206 15.4169 7.92206ZM12.0006 8.8194C10.1855 8.8194 8.71389 10.291 8.71389 12.1061C8.71389 13.9212 10.1855 15.3921 12.0006 15.3921C13.8157 15.3921 15.2868 13.9212 15.2868 12.1061C15.2868 10.291 13.8157 8.8194 12.0006 8.8194ZM12.0006 9.97275C13.1787 9.97275 14.1339 10.9278 14.1339 12.1061C14.1339 13.2842 13.1787 14.2395 12.0006 14.2395C10.8223 14.2395 9.86721 13.2842 9.86721 12.1061C9.86721 10.9278 10.8223 9.97275 12.0006 9.97275Z" fill="white"/>
</g>
</svg>
