<svg width="24" height="25" viewBox="0 0 24 25" fill="none" xmlns="http://www.w3.org/2000/svg">
<g id="Social Icons / White / Youtube">
<path id="BG" opacity="0.1" fill-rule="evenodd" clip-rule="evenodd" d="M0 12.106C0 5.47854 5.37258 0.105957 12 0.105957C18.6274 0.105957 24 5.47854 24 12.106C24 18.7334 18.6274 24.106 12 24.106C5.37258 24.106 0 18.7334 0 12.106Z" fill="white"/>
<path id="Path" fill-rule="evenodd" clip-rule="evenodd" d="M17.0008 7.98072C17.5515 8.13185 17.9853 8.57716 18.1325 9.14266C18.4 10.1676 18.4 12.3061 18.4 12.3061C18.4 12.3061 18.4 14.4445 18.1325 15.4694C17.9853 16.0349 17.5515 16.4803 17.0008 16.6315C16.0027 16.9061 12 16.9061 12 16.9061C12 16.9061 7.99728 16.9061 6.9991 16.6315C6.44834 16.4803 6.01459 16.0349 5.86739 15.4694C5.59998 14.4445 5.59998 12.3061 5.59998 12.3061C5.59998 12.3061 5.59998 10.1676 5.86739 9.14266C6.01459 8.57716 6.44834 8.13185 6.9991 7.98072C7.99728 7.70605 12 7.70605 12 7.70605C12 7.70605 16.0027 7.70605 17.0008 7.98072ZM10.8 10.506V14.506L14 12.5061L10.8 10.506Z" fill="white"/>
</g>
</svg>
