<svg width="24" height="25" viewBox="0 0 24 25" fill="none" xmlns="http://www.w3.org/2000/svg">
<g id="Social Icons / White / Dribbble">
<path id="BG" opacity="0.1" fill-rule="evenodd" clip-rule="evenodd" d="M0 12.106C0 5.47854 5.37258 0.105957 12 0.105957C18.6274 0.105957 24 5.47854 24 12.106C24 18.7334 18.6274 24.106 12 24.106C5.37258 24.106 0 18.7334 0 12.106Z" fill="white"/>
<path id="Path" fill-rule="evenodd" clip-rule="evenodd" d="M18.4 12.0972C18.4 12.53 18.3559 12.9622 18.2694 13.3835C18.185 13.7948 18.06 14.1986 17.8962 14.5847C17.7362 14.9638 17.5378 15.3293 17.3059 15.67C17.0774 16.0086 16.8143 16.3263 16.5252 16.6159C16.2355 16.9042 15.9167 17.1667 15.5783 17.3961C15.2364 17.6263 14.8705 17.8245 14.4911 17.9853C14.1045 18.1481 13.6997 18.273 13.2888 18.3572C12.8669 18.444 12.4331 18.4883 11.9997 18.4883C11.5659 18.4883 11.1321 18.444 10.7109 18.3572C10.2993 18.273 9.89459 18.1481 9.50832 17.9853C9.12893 17.8245 8.76264 17.6263 8.42076 17.3961C8.0823 17.1667 7.76354 16.9042 7.47446 16.6159C7.18508 16.3263 6.92193 16.0086 6.69317 15.67C6.46253 15.3293 6.26376 14.9638 6.10313 14.5847C5.93936 14.1986 5.81405 13.7948 5.72936 13.3835C5.64374 12.9622 5.59998 12.53 5.59998 12.0972C5.59998 11.664 5.64371 11.2309 5.72939 10.8105C5.81408 10.3992 5.93938 9.99477 6.10316 9.60938C6.26378 9.22992 6.46256 8.86418 6.69319 8.52339C6.92195 8.1845 7.18511 7.86742 7.47449 7.57751C7.76357 7.28915 8.08233 7.02735 8.42078 6.7983C8.76267 6.56704 9.12895 6.3689 9.50834 6.20786C9.89462 6.04462 10.2993 5.9195 10.7109 5.83588C11.1322 5.74975 11.5659 5.70605 11.9997 5.70605C12.4332 5.70605 12.8669 5.74975 13.2888 5.83588C13.6998 5.91953 14.1045 6.04465 14.4911 6.20786C14.8705 6.36888 15.2364 6.56704 15.5783 6.7983C15.9168 7.02735 16.2356 7.28915 16.5252 7.57751C16.8143 7.86742 17.0775 8.1845 17.3059 8.52339C17.5378 8.86418 17.7362 9.22994 17.8962 9.60938C18.06 9.99477 18.185 10.3992 18.2694 10.8105C18.3559 11.2309 18.4 11.664 18.4 12.0972ZM9.66766 7.16059C8.14351 7.87929 7.00595 9.28171 6.65124 10.9719C6.79533 10.9731 9.07295 11.0018 11.6971 10.3056C10.7512 8.62729 9.74049 7.25767 9.66766 7.16059ZM12.15 11.146C9.33577 11.9873 6.6353 11.9268 6.53844 11.9231C6.53686 11.9817 6.53405 12.0385 6.53405 12.0972C6.53405 13.4993 7.06376 14.7775 7.93444 15.744C7.93256 15.7412 9.42828 13.0914 12.3778 12.139C12.449 12.1153 12.5216 12.094 12.5934 12.0735C12.4563 11.7633 12.3065 11.4525 12.15 11.146ZM15.6092 8.00099C14.647 7.15372 13.3835 6.63978 11.9997 6.63978C11.5556 6.63978 11.1246 6.69346 10.7118 6.79269C10.7937 6.90255 11.8203 8.26252 12.755 9.97636C14.8173 9.20432 15.5958 8.02096 15.6092 8.00099ZM12.966 12.9778C12.9538 12.9819 12.9416 12.9853 12.9297 12.9897C9.70494 14.1123 8.65184 16.3746 8.64045 16.3993C9.56833 17.1199 10.7321 17.5546 11.9997 17.5546C12.7566 17.5546 13.4776 17.4007 14.1335 17.1221C14.0526 16.6452 13.7351 14.9738 12.966 12.9778ZM15.0539 16.6234C16.2811 15.7964 17.1527 14.4833 17.3959 12.9622C17.2834 12.926 15.7542 12.4426 13.9901 12.725C14.707 14.6923 14.9983 16.2945 15.0539 16.6234ZM13.1757 10.7896C13.3026 11.0499 13.4254 11.3148 13.5388 11.581C13.5792 11.6765 13.6185 11.7701 13.657 11.8637C15.5346 11.6278 17.3843 12.0248 17.4634 12.041C17.4509 10.7472 16.9874 9.55975 16.2206 8.63012C16.2102 8.64475 15.3336 9.90957 13.1757 10.7896Z" fill="white"/>
</g>
</svg>
