<svg width="119" height="28" viewBox="0 0 119 28" fill="none" xmlns="http://www.w3.org/2000/svg">
<path d="M118.176 12.8854C118.176 13.279 118.15 13.6726 118.099 14.0662H108.576C108.627 14.8534 108.841 15.4437 109.218 15.8373C109.611 16.2138 110.108 16.402 110.707 16.402C111.545 16.402 112.144 16.0255 112.503 15.2726H117.868C117.646 16.2651 117.209 17.155 116.559 17.9421C115.926 18.7122 115.122 19.3197 114.146 19.7646C113.171 20.2095 112.093 20.432 110.912 20.432C109.492 20.432 108.225 20.1325 107.113 19.5336C106.018 18.9346 105.154 18.079 104.521 16.9667C103.904 15.8544 103.596 14.5453 103.596 13.0395C103.596 11.5336 103.904 10.233 104.521 9.13785C105.137 8.02555 105.992 7.16993 107.087 6.571C108.2 5.97207 109.475 5.67261 110.912 5.67261C112.332 5.67261 113.59 5.96352 114.685 6.54533C115.78 7.12715 116.636 7.96566 117.252 9.06084C117.868 10.1389 118.176 11.4138 118.176 12.8854ZM113.042 11.6277C113.042 11.0116 112.837 10.5325 112.426 10.1903C112.016 9.8309 111.502 9.65122 110.886 9.65122C110.27 9.65122 109.765 9.82234 109.372 10.1646C108.978 10.4897 108.722 10.9774 108.602 11.6277H113.042Z" fill="#E43071"/>
<path d="M102.62 10.0364H100.361V20.2524H95.3043V10.0364H93.7385V5.85241H95.3043V5.72406C95.3043 3.87594 95.8433 2.46417 96.9214 1.48877C98.0166 0.496257 99.5824 0 101.619 0C102.029 0 102.346 0.00855606 102.568 0.0256681V4.3123C102.432 4.29519 102.243 4.28663 102.004 4.28663C101.456 4.28663 101.054 4.41497 100.797 4.67166C100.541 4.91123 100.395 5.30481 100.361 5.85241H102.62V10.0364Z" fill="#E43071"/>
<path d="M93.5262 5.85229L84.3882 27.1058H78.9208L82.3604 19.6363L76.4567 5.85229H82.0524L85.0813 14.0149L88.0075 5.85229H93.5262Z" fill="#E43071"/>
<path d="M75.1575 1.25781V20.2525H70.1265V1.25781H75.1575Z" fill="#E43071"/>
<path d="M51.8585 13.0396C51.8585 11.5509 52.1238 10.2503 52.6542 9.13803C53.2018 8.02573 53.9462 7.17011 54.8874 6.57118C55.8286 5.97225 56.8724 5.67279 58.0189 5.67279C58.943 5.67279 59.7644 5.86958 60.4831 6.26316C61.2189 6.63963 61.7922 7.16156 62.2029 7.82893V1.25781H67.2596V20.2525H62.2029V18.2503C61.8093 18.9177 61.2532 19.4482 60.5345 19.8418C59.8157 20.2354 58.9687 20.4321 57.9933 20.4321C56.8468 20.4321 55.8029 20.1327 54.8617 19.5337C53.9377 18.9348 53.2018 18.0792 52.6542 16.9669C52.1238 15.8375 51.8585 14.5284 51.8585 13.0396ZM62.2286 13.0396C62.2286 12.1156 61.9719 11.3883 61.4585 10.8578C60.9623 10.3273 60.3462 10.0621 59.6104 10.0621C58.8575 10.0621 58.2329 10.3273 57.7366 10.8578C57.2403 11.3712 56.9922 12.0985 56.9922 13.0396C56.9922 13.9637 57.2403 14.6995 57.7366 15.2471C58.2329 15.7776 58.8575 16.0428 59.6104 16.0428C60.3462 16.0428 60.9623 15.7776 61.4585 15.2471C61.9719 14.7166 62.2286 13.9808 62.2286 13.0396Z" fill="white"/>
<path d="M43.0608 20.432C41.6233 20.432 40.3314 20.1325 39.1848 19.5336C38.0554 18.9346 37.1656 18.079 36.5153 16.9667C35.865 15.8544 35.5399 14.5453 35.5399 13.0395C35.5399 11.5507 35.865 10.2501 36.5153 9.13785C37.1827 8.02555 38.0811 7.16993 39.2105 6.571C40.357 5.97207 41.649 5.67261 43.0864 5.67261C44.5239 5.67261 45.8073 5.97207 46.9367 6.571C48.0832 7.16993 48.9816 8.02555 49.6319 9.13785C50.2993 10.2501 50.633 11.5507 50.633 13.0395C50.633 14.5282 50.2993 15.8373 49.6319 16.9667C48.9816 18.079 48.0832 18.9346 46.9367 19.5336C45.7902 20.1325 44.4982 20.432 43.0608 20.432ZM43.0608 16.0683C43.7624 16.0683 44.3442 15.8116 44.8062 15.2983C45.2854 14.7678 45.5249 14.0149 45.5249 13.0395C45.5249 12.0641 45.2854 11.3197 44.8062 10.8063C44.3442 10.2929 43.7709 10.0362 43.0864 10.0362C42.4019 10.0362 41.8287 10.2929 41.3667 10.8063C40.9046 11.3197 40.6736 12.0641 40.6736 13.0395C40.6736 14.032 40.8961 14.7849 41.341 15.2983C41.7859 15.8116 42.3592 16.0683 43.0608 16.0683Z" fill="white"/>
<path d="M26.7423 20.432C25.3049 20.432 24.0129 20.1325 22.8664 19.5336C21.7369 18.9346 20.8471 18.079 20.1968 16.9667C19.5466 15.8544 19.2214 14.5453 19.2214 13.0395C19.2214 11.5507 19.5466 10.2501 20.1968 9.13785C20.8642 8.02555 21.7626 7.16993 22.892 6.571C24.0385 5.97207 25.3305 5.67261 26.768 5.67261C28.2054 5.67261 29.4888 5.97207 30.6182 6.571C31.7648 7.16993 32.6631 8.02555 33.3134 9.13785C33.9808 10.2501 34.3145 11.5507 34.3145 13.0395C34.3145 14.5282 33.9808 15.8373 33.3134 16.9667C32.6631 18.079 31.7648 18.9346 30.6182 19.5336C29.4717 20.1325 28.1797 20.432 26.7423 20.432ZM26.7423 16.0683C27.4439 16.0683 28.0257 15.8116 28.4877 15.2983C28.9669 14.7678 29.2065 14.0149 29.2065 13.0395C29.2065 12.0641 28.9669 11.3197 28.4877 10.8063C28.0257 10.2929 27.4525 10.0362 26.768 10.0362C26.0835 10.0362 25.5102 10.2929 25.0482 10.8063C24.5861 11.3197 24.3551 12.0641 24.3551 13.0395C24.3551 14.032 24.5776 14.7849 25.0225 15.2983C25.4674 15.8116 26.0407 16.0683 26.7423 16.0683Z" fill="white"/>
<path d="M12.1668 8.11132C11.8759 7.63218 11.4738 7.26426 10.9604 7.00758C10.4642 6.75089 9.8738 6.62255 9.18931 6.62255C7.923 6.62255 6.92193 7.03325 6.1861 7.85464C5.46738 8.67603 5.10802 9.77977 5.10802 11.1659C5.10802 12.7231 5.49305 13.9124 6.2631 14.7338C7.05027 15.5381 8.18824 15.9402 9.67701 15.9402C11.4396 15.9402 12.6973 15.1445 13.4503 13.553H8.39358V9.93378H17.7882V14.8108C17.3947 15.7691 16.8128 16.6675 16.0428 17.506C15.2898 18.3445 14.3316 19.0375 13.1679 19.5851C12.0043 20.1156 10.6781 20.3808 9.18931 20.3808C7.3754 20.3808 5.76685 19.9958 4.36364 19.2258C2.97754 18.4386 1.89947 17.352 1.12941 15.9659C0.376471 14.5627 0 12.9627 0 11.1659C0 9.38619 0.376471 7.8033 1.12941 6.4172C1.89947 5.014 2.97754 3.92736 4.36364 3.15731C5.74973 2.37015 7.34973 1.97656 9.16364 1.97656C11.4396 1.97656 13.3219 2.52416 14.8107 3.61934C16.2995 4.71453 17.2235 6.21186 17.5829 8.11132H12.1668Z" fill="white"/>
</svg>
